<?xml version="1.0" standalone="no"?>
<!DOCTYPE svg PUBLIC "-//W3C//DTD SVG 20010904//EN"
 "http://www.w3.org/TR/2001/REC-SVG-20010904/DTD/svg10.dtd">
<svg version="1.0" xmlns="http://www.w3.org/2000/svg"
 width="820.000000pt" height="848.000000pt" viewBox="0 0 820.000000 848.000000"
 preserveAspectRatio="xMidYMid meet">

<g transform="translate(0.000000,848.000000) scale(0.100000,-0.100000)"
fill="#000000" stroke="none">
<path d="M540 8060 c-169 -8 -225 -26 -308 -104 -79 -74 -102 -128 -115 -264
-17 -174 -17 -6942 0 -7105 14 -138 41 -196 123 -270 89 -80 119 -89 335 -98
105 -4 1402 -8 2883 -9 l2692 0 68 34 c86 43 158 108 210 188 l40 63 4 1108
c2 609 1 1106 -2 1105 -9 -5 -303 -318 -318 -339 -12 -17 -15 -172 -22 -887
-4 -477 -11 -877 -15 -889 -5 -16 -18 -23 -48 -27 -87 -12 -2526 -18 -4039
-11 l-1578 7 0 3578 0 3578 1608 7 c1531 7 3920 1 4009 -11 30 -4 43 -12 49
-27 4 -12 9 -649 11 -1414 2 -766 7 -1393 11 -1393 5 0 83 78 175 174 l167
174 0 829 c-1 455 -5 1027 -9 1270 l-9 442 -29 64 c-37 78 -113 156 -187 192
-51 25 -70 28 -228 36 -202 9 -5264 9 -5478 -1z"/>
<path d="M1067 7043 c-4 -3 -7 -80 -7 -170 l0 -163 2225 0 2225 0 0 170 0 170
-2218 0 c-1220 0 -2222 -3 -2225 -7z"/>
<path d="M1060 5850 l0 -170 2225 0 2225 0 0 170 0 170 -2225 0 -2225 0 0
-170z"/>
<path d="M7074 5608 c-27 -30 -245 -261 -484 -514 -239 -252 -743 -785 -1120
-1184 -1164 -1232 -1411 -1493 -1462 -1546 -56 -58 -29 34 -238 -822 -94 -382
-130 -546 -122 -554 14 -14 112 12 757 207 537 162 551 166 585 203 97 104
2305 2440 2620 2771 447 471 447 471 466 517 8 20 18 76 21 123 18 289 -138
596 -365 714 -137 72 -315 118 -513 132 l-95 7 -50 -54z m310 -313 c152 -32
272 -116 325 -229 46 -97 66 -243 35 -253 -16 -5 -71 41 -238 200 -162 154
-270 273 -261 288 9 13 59 11 139 -6z m-258 -394 c66 -60 177 -164 247 -232
l129 -124 -224 -235 c-123 -130 -416 -440 -653 -690 -1351 -1428 -1745 -1840
-1760 -1840 -26 0 -427 355 -481 426 l-24 31 237 254 c340 364 989 1051 1648
1743 313 329 607 639 653 687 46 49 89 89 97 89 7 0 66 -49 131 -109z m-2775
-3134 c130 -117 175 -165 164 -176 -16 -14 -366 -121 -397 -121 -5 0 -6 17 -2
38 11 68 64 306 75 339 10 32 11 32 38 18 15 -7 70 -52 122 -98z"/>
<path d="M1064 4987 c-2 -7 -3 -85 -2 -172 l3 -160 2223 -3 2222 -2 0 175 0
175 -2220 0 c-1804 0 -2222 -2 -2226 -13z"/>
</g>
</svg>
